# xmcd
#
# Track frame offsets:
#	150
#	13962
#	26392
#	38394
#	48489
#	61391
#	77192
#	88195
#	97260
#	109555
#	122431
#	131831
#	143716
#	155724
#	171800
#	181083
#	194740
#	205690
#
# Disc length: 2896 seconds
#
# Revision: 5
# Processed by: cddbd v1.5.2PL0 Copyright (c) Steve Scherf et al.
# Submitted via: audiograbber 1.83.01
#
DISCID=f60b4e12
DTITLE=Tanzrapid - Tanzen Tanzen Tanzen  Das Turnierprogramm
DYEAR=1999
DGENRE=Dance
TTITLE0=Deutscher Tanz Nr7 - LangsamerWalzer 30TM
TTITLE1=Auld lang syne - LangsamerWalzer 30TM
TTITLE2=Tango Carmencita - Tango 33TM
TTITLE3=Am Rio Negro - Tango 33TM
TTITLE4=Dorfschwalben aus Oesterreich - WienerWalzer 60TM
TTITLE5=Smoke gets in Your eyes - LangsamerFoxtrott 30TM
TTITLE6=Good Night Ladies - Quickstep 52TM
TTITLE7=Youre the Cream in my Coffee - Quickstep 52TM
TTITLE8=La Bamba - Samba 53TM
TTITLE9=Samba del Rio - Samba 53TM
TTITLE10=Carnaval ChaCha - ChaCha 32TM
TTITLE11=Eso es el Amor - ChaCha 32TM
TTITLE12=La Cucaracha - ChaCha 32TM
TTITLE13=Melodie in F - Rumba 27TM
TTITLE14=Larlesienne Fantasie - PasoDoble 62TM
TTITLE15=Love makes the World go round - Jive 44TM
TTITLE16=Red River Rock - Jive 44TM
TTITLE17=Schwarze Augen - Jive 44TM
EXTD=
EXTT0=
EXTT1=
EXTT2=
EXTT3=
EXTT4=
EXTT5=
EXTT6=
EXTT7=
EXTT8=
EXTT9=
EXTT10=
EXTT11=
EXTT12=
EXTT13=
EXTT14=
EXTT15=
EXTT16=
EXTT17=
PLAYORDER=
